# xmcd
#
# Track frame offsets:
#	150
#	16595
#	28735
#	41996
#	56254
#	67884
#	85376
#	102974
#	119205
#	136108
#	149246
#	166606
#	187083
#	215413
#
# Disc length: 3418 seconds
#
# Revision: 0
# Processed by: cddbd v1.5.1PL2 Copyright (c) Steve Scherf et al.
# Submitted via: dBpowerAMP V4.0
#
DISCID=c90d580e
DTITLE=Pedro Ochoa - Ruta J33.3
DYEAR=2006
DGENRE=Country
TTITLE0=Pródigo Vaquero
TTITLE1=Brilla donde estés
TTITLE2=Manejando (Ruta J33.3)
TTITLE3=Agradecido
TTITLE4=Volar
TTITLE5=Mi Complemento
TTITLE6=Princesa
TTITLE7=A tu alrededor
TTITLE8=El diablo bajó al Jordán
TTITLE9=El Tren
TTITLE10=Amiga Mía
TTITLE11=Oración del Vaquero
TTITLE12=Sublime Gracia (Bonus Track)
TTITLE13=DATA
EXTD=
EXTT0=
EXTT1=
EXTT2=
EXTT3=
EXTT4=
EXTT5=
EXTT6=
EXTT7=
EXTT8=
EXTT9=
EXTT10=
EXTT11=
EXTT12=
EXTT13=
PLAYORDER=
